<svg xmlns="http://www.w3.org/2000/svg" xmlns:xlink="http://www.w3.org/1999/xlink" version="1.1" style="" xml:space="preserve" width="465.978" height="465.978"><rect id="backgroundrect" width="100%" height="100%" x="0" y="0" fill="none" stroke="none"/>
















<g class="currentLayer" style=""><title>Layer 1</title><g id="svg_1" class="selected" fill="#d50b0b" fill-opacity="1" stroke="#000000" stroke-opacity="1" stroke-width="8">
	<g id="svg_2" fill="#d50b0b" fill-opacity="1" stroke="#000000" stroke-opacity="1" stroke-width="8">
		<g id="svg_3" fill="#d50b0b" fill-opacity="1" stroke="#000000" stroke-opacity="1" stroke-width="8">
			<path style="" d="M320.39312030792235,231.201 c0,6.468 -37.469,11.753 -83.701,11.753 c-46.213,0 -83.652,-5.286 -83.652,-11.753 c0,-6.487 37.439,-11.744 83.652,-11.744 C282.9441203079224,219.457 320.39312030792235,224.714 320.39312030792235,231.201 zM236.70212030792237,154.906 c-73.618,0 -91.693,27.171 -91.693,27.171 v6.302 c6.204,-6.6530000000000005 28.509,-24.093 91.693,-24.093 s85.528,17.44 91.732,24.083 v-6.282 C328.43412030792234,182.077 310.33012030792236,154.906 236.70212030792237,154.906 zM412.86812030792237,0 v361.291 H299.23112030792237 l-66.994,104.687 l-66.965,-104.687 H51.60612030792236 V0 H412.86812030792237 zM368.7951203079224,232.872 c-10.571,4.103 -14.714,0 -14.714,0 l-3.4,46.223 c9.926,-15.408 18.114,-9.604 18.114,-9.604 V232.872 zM363.80212030792234,215.491 v-29.897 l28.812,-15.916 L236.70212030792237,86.417 L80.81912030792236,169.678 l62.158,36.111 v22.921 l0.5760000000000001,-0.24400000000000002 c-0.6840000000000002,0.909 -1.104,1.788 -1.104,2.736 c0,10.444 42.168,18.944 94.263,18.944 s94.321,-8.51 94.321,-18.944 c0,-0.9480000000000001 -0.459,-1.827 -1.085,-2.736 l0.547,0.24400000000000002 V205.73 l27.102,-16.678 v26.438 c-2.96,1.202 -5.041,4.152 -5.041,7.552 c0,4.494 3.644,8.148 8.148,8.148 c4.524,0 8.148,-3.644 8.148,-8.148 C368.8531203079224,219.643 366.79212030792235,216.692 363.80212030792234,215.491 z" id="svg_4" fill="#d50b0b" fill-opacity="1" stroke="#000000" stroke-opacity="1" stroke-width="8"/>
		</g>
	</g>
</g><g id="svg_5">
</g><g id="svg_6">
</g><g id="svg_7">
</g><g id="svg_8">
</g><g id="svg_9">
</g><g id="svg_10">
</g><g id="svg_11">
</g><g id="svg_12">
</g><g id="svg_13">
</g><g id="svg_14">
</g><g id="svg_15">
</g><g id="svg_16">
</g><g id="svg_17">
</g><g id="svg_18">
</g><g id="svg_19">
</g></g></svg>