<svg xmlns="http://www.w3.org/2000/svg" xmlns:xlink="http://www.w3.org/1999/xlink" version="1.1" width="466.583" height="466.582" style="enable-background:new 0 0 466.583 466.582;" xml:space="preserve"><rect id="backgroundrect" width="100%" height="100%" x="0" y="0" fill="none" stroke="none"/>
















<g class="currentLayer" style=""><title>Layer 1</title><g id="svg_1" class="selected" fill="#f7e013" fill-opacity="1" stroke="#000000" stroke-opacity="1" stroke-width="13">
	<path d="M233.292,0c-85.1,0-154.334,69.234-154.334,154.333c0,34.275,21.887,90.155,66.908,170.834   c31.846,57.063,63.168,104.643,64.484,106.64l22.942,34.775l22.941-34.774c1.317-1.998,32.641-49.577,64.483-106.64   c45.023-80.68,66.908-136.559,66.908-170.834C387.625,69.234,318.391,0,233.292,0z M233.292,233.291c-44.182,0-80-35.817-80-80   s35.818-80,80-80c44.182,0,80,35.817,80,80S277.473,233.291,233.292,233.291z" id="svg_2" fill="#f7e013" fill-opacity="1" stroke="#000000" stroke-opacity="1" stroke-width="13"/>
</g><g id="svg_3">
</g><g id="svg_4">
</g><g id="svg_5">
</g><g id="svg_6">
</g><g id="svg_7">
</g><g id="svg_8">
</g><g id="svg_9">
</g><g id="svg_10">
</g><g id="svg_11">
</g><g id="svg_12">
</g><g id="svg_13">
</g><g id="svg_14">
</g><g id="svg_15">
</g><g id="svg_16">
</g><g id="svg_17">
</g></g></svg>